<svg id="logosandtypes_com" xmlns="http://www.w3.org/2000/svg" viewBox="0 0 150 150.2"><style>.st1{fill:#db011a}</style><path d="M0 .2h150v150H0V.2z" fill="none" id="Layer_3"/><g id="rossignol"><path id="path957" class="st1" d="M65.8 72.6c17.9.4 36.6-5.9 43-10.5-6.9-1-21.5-1.6-37.4-1.6.1 0-3.3 8-5.6 12.1"/><path id="path959" class="st1" d="M125 65.2c-10.3 7-31.9 14.9-48.9 15.5 10.9 7.3 25 12 40.4 16.2.4.1.7.3.9.7v.2c0 .4-.2.9-.6 1.2-1.3 1.5-4.9 3.5-7 3.1C88.6 98 72.1 89.2 60.6 82.5c0 0-5.5 9.3-8.7 13.4-.8 1.1-2.4 2.8-4.8 1.6l-4.4-2.3s7.5-12.8 9.7-17.3c-.3-.2-2.3-1-2.3-1-.4-.3-.6-.8-.6-1.3 0-.7.2-1.4.6-2.1.8-1.7 2.3-3.2 3.6-2.8l2 .6c1.8-3.4 3.2-7 4.2-10.7-16.3.4-33.8 1.8-35.9 1.9 0-.8.1-1.5.2-2.3.4-2.8 2.1-6 3.5-6.5 1.8-.5 3.6-.8 5.4-1 31.6-3.6 80.3-1.8 89.5 1 1.4.4 2.4 3.6 2.8 6.5.1.8.2 1.7.2 2.5.1 1.3-.1 2.1-.6 2.5M75.2 12.3c-34.2 0-62 27.8-62 62s27.8 62 62 62 62-27.8 62-62c0-34.3-27.8-62-62-62"/></g></svg>